# AST/ASF file generated using VICON BodyLanguage
# -----------------------------------------------
:version 1.10
:name VICON
:units
  mass 1.0
  length 0.45
  angle deg
:documentation
   .ast/.asf automatically generated from VICON data using
   VICON BodyBuilder and BodyLanguage model FoxedUp or BRILLIANT.MOD
:root
   order TX TY TZ RX RY RZ
   axis XYZ
   position 0 0 0  
   orientation 0 0 0 
:bonedata
  begin
     id 1 
     name lhipjoint
     direction 0.64773 -0.699417 0.302095 
     length 2.48597 
     axis 0 0 0  XYZ
  end
  begin
     id 2 
     name lfemur
     direction 0.34202 -0.939693 0  
     length 6.71947  
     axis 0 0 20  XYZ
    dof rx ry rz
    limits (-160.0 20.0)
           (-70.0 70.0)
           (-60.0 70.0)
  end
  begin
     id 3 
     name ltibia
     direction 0.34202 -0.939693 0   
     length 8.08777   
     axis 0 0 20   XYZ
    dof rx
    limits (-10.0 170.0)
  end
  begin
     id 4 
     name lfoot
     direction 0.0808503 -0.222134 0.971658   
     length 2.08264   
     axis -90 7.62852e-016 20   XYZ
    dof rx rz
    limits (-45.0 90.0)
           (-70.0 20.0)
  end
  begin
     id 5 
     name ltoes
     direction 1.53502e-011 -4.22007e-011 1   
     length 1.04662   
     axis -90 7.62852e-016 20   XYZ
    dof rx
    limits (-90.0 20.0)
  end
  begin
     id 6 
     name rhipjoint
     direction -0.610924 -0.726792 0.313919   
     length 2.39233  
     axis 0 0 0  XYZ 
  end
  begin
     id 7 
     name rfemur
     direction -0.34202 -0.939693 0   
     length 6.96955   
     axis 0 0 -20   XYZ
    dof rx ry rz
    limits (-160.0 20.0)
           (-70.0 70.0)
           (-70.0 60.0)
  end
  begin
     id 8 
     name rtibia
     direction -0.34202 -0.939693 0   
     length 8.19584   
     axis 0 0 -20   XYZ
    dof rx
    limits (-10.0 170.0)
 end
 begin
     id 9 
     name rfoot
     direction -0.077777 -0.213691 0.9738   
     length 2.07539  
     axis -90 -7.62852e-016 -20   XYZ
    dof rx rz
    limits (-45.0 90.0)
           (-20.0 70.0)
  end
  begin
     id 10 
     name rtoes
     direction -1.53558e-011 -4.22006e-011 1   
     length 1.04381   
     axis -90 -7.62852e-016 -20   XYZ
    dof rx
    limits (-90.0 20.0)
  end
  begin
     id 11 
     name lowerback
     direction -0.00971646 0.996074 0.0879841   
     length 1.67643   
     axis 0 0 0   XYZ
    dof rx ry rz
    limits (-20.0 45.0)
           (-30.0 30.0)
           (-30.0 30.0)
  end
  begin
     id 12 
     name upperback
     direction 0.0127391 0.991676 0.128127   
     length 1.63741   
     axis 0 0 0   XYZ
    dof rx ry rz
    limits (-20.0 45.0)
           (-30.0 30.0)
           (-30.0 30.0)
  end
  begin
     id 13 
     name thorax
     direction 0.0167583 0.996049 0.0872067   
     length 1.65931   
     axis 0 0 0   XYZ
    dof rx ry rz
    limits (-20.0 45.0)
           (-30.0 30.0)
           (-30.0 30.0)
  end
  begin
     id 14 
     name lowerneck
     direction -0.0317829 0.998312 0.0486079   
     length 1.79021   
     axis 0 0 0   XYZ
    dof rx ry rz
    limits (-20.0 45.0)
           (-30.0 30.0)
           (-30.0 30.0)
  end
  begin
     id 15 
     name upperneck
     direction 0.0896851 0.972452 -0.215159   
     length 1.78797   
     axis 0 0 0   XYZ
    dof rx ry rz
    limits (-20.0 45.0)
           (-30.0 30.0)
           (-30.0 30.0)
  end
  begin
     id 16
     name head
     direction 0.0310949 0.996503 -0.0775582  
     length 1.81549  
     axis 0 0 0   XYZ
    dof rx ry rz
    limits (-20.0 45.0)
           (-30.0 30.0)
           (-30.0 30.0)
  end
  begin
     id 17 
     name lclavicle
     direction 0.853638 0.502051 -0.138733  
     length 3.31627  
     axis 0 0 0   XYZ
    dof ry rz
    limits (-20.0 10.0)
           (0.0 20.0)
  end
  begin
     id 18 
     name lhumerus
     direction 1 -4.48962e-011 -1.41788e-018   
     length 5.54893   
     axis 180 -30 -90   XYZ
    dof rx ry rz
    limits (-60.0 90.0)
           (-90.0 90.0)
           (-90.0 90.0)
  end
  begin
     id 19
     name lradius
     direction 1 -4.48962e-011 -4.95754e-027   
     length 3.02898   
     axis 180 -30 -90   XYZ
    dof rx
    limits (-10.0 170.0)
  end
  begin
     id 20
     name lwrist
     direction 1 -4.48952e-011 -1.03764e-026   
     length 1.51449   
     axis 9.09556e-015 90 90   XYZ
    dof ry
    limits (-180.0 0.0)
 end
  begin
     id 21 
     name lhand
     direction 1 -4.4902e-011 -2.07528e-026   
     length 0.640951   
     axis 1.3242e-014 90 90   XYZ
    dof rx rz
    limits (-90.0 90.0)
           (-45.0 45.0)
  end
  begin
     id 22 
     name lfingers
     direction 1 -4.49014e-011 -4.15056e-026   
     length 0.516751   
     axis 2.64841e-014 90 90   XYZ
    dof rx
    limits (0.0 90.0)
  end
  begin
     id 23
     name lthumb
     direction 0.707107 -6.35008e-011 0.707107   
     length 0.741954   
     axis -90 45 2.85299e-015   XYZ
    dof rx rz
    limits (-45.0 45.0)
           (-45.0 45.0)
  end
  begin
     id 24 
     name rclavicle
     direction -0.888531 0.455324 -0.0565039   
     length 3.20126  
     axis 0 0 0   XYZ 
    dof ry rz
    limits (-10.0 20.0)
           (-20.0 0.0)
  end
  begin
     id 25 
     name rhumerus
     direction -1 -4.48946e-011 -8.98298e-028  
     length 5.3519   
     axis 180 30 90   XYZ
    dof rx ry rz
    limits (-90.0 60.0)
           (-90.0 90.0)
           (-90.0 90.0)
  end
  begin
     id 26 
     name rradius
     direction -1 -4.4899e-011 -3.18779e-027   
     length 3.02531   
     axis 180 30 90   XYZ
    dof rx
    limits (-10.0 170.0)
  end
  begin
     id 27 
     name rwrist
     direction -1 -4.4897e-011 -1.03764e-026   
     length 1.51266   
     axis 9.09556e-015 -90 -90   XYZ
    dof ry
    limits (-180.0 0.0)
  end
  begin
     id 28
     name rhand
     direction -1 -4.48941e-011 -2.07528e-026   
     length 0.78389   
     axis 1.3242e-014 -90 -90   XYZ
    dof rx rz
    limits (-90.0 90.0)
           (-45.0 45.0)
  end
  begin
     id 29
     name rfingers
     direction -1 -4.49012e-011 -4.15056e-026   
     length 0.631992   
     axis 2.64841e-014 -90 -90   XYZ
    dof rx
    limits (0.0 90.0)
  end
  begin
     id 30
     name rthumb
     direction -0.707107 -6.3496e-011 0.707107   
     length 0.907418   
     axis -90 -45 -2.85299e-015   XYZ
    dof rx rz
    limits (-45.0 45.0)
           (-45.0 45.0)
  end
:hierarchy
  begin
    root lhipjoint rhipjoint lowerback
    lhipjoint lfemur
    lfemur ltibia
    ltibia lfoot
    lfoot ltoes
    rhipjoint rfemur
    rfemur rtibia
    rtibia rfoot
    rfoot rtoes
    lowerback upperback
    upperback thorax
    thorax lowerneck lclavicle rclavicle
    lowerneck upperneck
    upperneck head
    lclavicle lhumerus
    lhumerus lradius
    lradius lwrist
    lwrist lhand lthumb
    lhand lfingers
    rclavicle rhumerus
    rhumerus rradius
    rradius rwrist
    rwrist rhand rthumb
    rhand rfingers
  end

#!OML:ASF E:\Style3\Style3.ASF
:FULLY-SPECIFIED
:DEGREES
803
root -0.242128 17.762 0.0266541 -163.201 116.664 -182.82
lowerback -0.676498 -5.23243 -4.23801
upperback -9.55421 -6.9338 2.03034
thorax -8.96673 -2.91788 4.94201
lowerneck -9.58274 -5.74412 -6.23444
upperneck 8.77907 -8.17038 11.9313
head 4.96942 -3.51504 4.11645
rclavicle 4.15708e-014 3.29983e-014
rhumerus 14.4362 40.4007 -53.1424
rradius 128.587
rwrist -14.5724
rhand 5.69817 18.1442
rfingers 7.12502
rthumb 31.0357 -9.25046
lclavicle 4.15708e-014 3.29983e-014
lhumerus -6.15016 -32.6458 65.2278
lradius 133.926
lwrist 25.229
lhand 22.8105 29.6341
lfingers 7.12502
lthumb 47.1437 52.2367
rfemur -31.0881 14.1129 10.5939
rtibia 21.4172
rfoot -12.3894 -0.525829
rtoes -21.2744
lfemur -17.1812 -0.181817 -20.17
ltibia 15.2352
lfoot -19.1425 29.809
ltoes -5.97992
804
root -0.320007 17.7262 0.00262354 -162.899 116.929 -182.969
lowerback 0.204493 -5.0683 -4.45108
upperback -9.33243 -6.78743 1.91928
thorax -9.24647 -2.82936 5.01484
lowerneck -9.3413 -5.83555 -6.35501
upperneck 7.78817 -8.23378 12.3211
head 4.656 -3.56378 4.2605
rclavicle -4.86867e-016 -3.18055e-014
rhumerus 14.2223 39.6363 -53.5752
rradius 128.761
rwrist -14.5871
rhand 5.11249 18.4461
rfingers 7.12502
rthumb 30.4773 -9.05367
lclavicle -4.86867e-016 -3.18055e-014
lhumerus -5.00533 -32.4106 64.6394
lradius 134.139
lwrist 25.4368
lhand 22.5143 29.5594
lfingers 7.12502
lthumb 46.8698 52.2828
rfemur -32.9651 14.3309 10.3856
rtibia 23.0824
rfoot -12.5897 -0.500471
rtoes -21.9698
lfemur -19.8916 1.13466 -20.31
ltibia 18.5608
lfoot -19.6016 28.8492
ltoes -6.51184
805
root -0.404422 17.6834 -0.0241338 -162.646 117.076 -183.158
lowerback 1.23028 -4.89346 -4.65414
upperback -9.05855 -6.6369 1.81872
thorax -9.55706 -2.73861 5.10215
lowerneck -9.10753 -5.97193 -6.45884
upperneck 6.73508 -8.34644 12.6898
head 4.3308 -3.64054 4.3919
rclavicle 2.39039e-014 1.19271e-014
rhumerus 13.9543 38.77 -53.9104
rradius 129.007
rwrist -14.6899
rhand 4.62452 18.6657
rfingers 7.12502
rthumb 30.0118 -8.91942
lclavicle 2.39039e-014 1.19271e-014
lhumerus -3.72397 -32.186 64.0086
lradius 134.41
lwrist 25.5557
lhand 22.066 29.3577
lfingers 7.12502
lthumb 46.4546 52.2605
rfemur -34.99 14.4447 10.2416
rtibia 25.0539
rfoot -12.8141 -0.509022
rtoes -22.3529
lfemur -22.6161 2.48855 -20.4628
ltibia 21.8376
lfoot -19.7448 27.9569
ltoes -8.02467
806
root -0.496242 17.6317 -0.0531709 -162.361 117.134 -183.341
lowerback 2.12155 -4.73603 -4.73256
upperback -8.64391 -6.5005 1.64815
thorax -9.65072 -2.68184 5.02011
lowerneck -8.79568 -6.09873 -6.65429
upperneck 5.46387 -8.4291 13.2843
head 3.94186 -3.70477 4.61553
rclavicle -6.72389e-014 1.51076e-014
rhumerus 13.8527 37.7455 -54.1823
rradius 129.375
rwrist -14.936
rhand 4.06964 18.6032
rfingers 7.12502
rthumb 29.4822 -9.07663
lclavicle -6.72389e-014 1.51076e-014
lhumerus -2.13684 -31.9097 63.1273
lradius 134.655
lwrist 25.5952
lhand 21.5097 29.1291
lfingers 7.12502
lthumb 45.9388 52.2491
rfemur -37.1835 14.4411 10.1091
rtibia 27.2864
rfoot -13.0526 -0.480692
rtoes -21.7448
lfemur -25.4061 3.8465 -20.6599
ltibia 25.0635
lfoot -19.6696 27.0625
ltoes -9.68354
807
root -0.5933 17.5687 -0.08428 -161.813 117.142 -183.344
lowerback 2.83987 -4.6282 -4.80256
upperback -8.09791 -6.42453 1.40385
thorax -9.49759 -2.67334 4.83073
lowerneck -8.6423 -6.20039 -6.76866
upperneck 4.11555 -8.46446 13.9216
head 3.55439 -3.74163 4.84101
rclavicle -2.3556e-014 -2.22639e-014
rhumerus 13.9675 36.6113 -54.3908
rradius 129.79
rwrist -14.9417
rhand 3.36027 18.8169
rfingers 7.12502
rthumb 28.8048 -8.98028
lclavicle -2.3556e-014 -2.22639e-014
lhumerus -0.301337 -31.438 61.9831
lradius 134.905
lwrist 25.6126
lhand 20.9725 28.8982
lfingers 7.12502
lthumb 45.4399 52.2224
rfemur -39.5914 14.2492 9.92368
rtibia 29.6843
rfoot -13.3332 -0.411828
rtoes -21.0378
lfemur -28.2717 5.02681 -20.9512
ltibia 28.1821
lfoot -19.8695 26.1017
ltoes -10.598
808
root -0.694412 17.496 -0.115162 -161.139 117.081 -183.24
lowerback 3.7341 -4.57615 -5.03985
upperback -7.62606 -6.43931 1.27456
thorax -9.49398 -2.68176 4.88623
lowerneck -8.42161 -6.21653 -6.95209
upperneck 2.75965 -8.35673 14.4136
head 3.13679 -3.72184 5.0472
rclavicle -4.8901e-014 -1.19271e-014
rhumerus 14.14 35.7347 -54.3837
rradius 130.232
rwrist -14.6866
rhand 2.47743 19.2605
rfingers 7.12502
rthumb 27.9611 -8.67722
lclavicle -4.8901e-014 -1.19271e-014
lhumerus 1.2236 -30.8707 61.1638
lradius 135.184
lwrist 25.3662
lhand 20.756 28.4149
lfingers 7.12502
lthumb 45.2387 51.8198
rfemur -42.0706 13.9341 9.71488
rtibia 32.1295
rfoot -13.5893 -0.213406
rtoes -19.6794
lfemur -31.1118 6.00195 -21.2722
ltibia 31.1648
lfoot -20.3065 25.1279
ltoes -10.2362
809
root -0.795296 17.4206 -0.145645 -160.44 116.99 -183.012
lowerback 4.93286 -4.50433 -5.38896
upperback -7.21882 -6.45419 1.22817
thorax -9.7245 -2.66445 5.12805
lowerneck -8.03679 -6.21898 -7.39905
upperneck 1.26545 -8.18893 14.9123
head 2.6581 -3.68758 5.31017
rclavicle -3.97569e-016 7.95139e-015
rhumerus 14.3138 34.9913 -54.1335
rradius 130.728
rwrist -14.4335
rhand 1.53287 19.5894
rfingers 7.12502
rthumb 27.0578 -8.49207
lclavicle -3.97569e-016 7.95139e-015
lhumerus 2.54289 -30.3278 60.6564
lradius 135.459
lwrist 25.0648
lhand 20.3038 28.0491
lfingers 7.12502
lthumb 44.818 51.62
rfemur -44.4385 13.6575 9.42922
rtibia 34.4994
rfoot -13.8905 0.0875722
rtoes -17.7369
lfemur -33.7791 6.84727 -21.6783
ltibia 33.9847
lfoot -20.6391 24.4288
ltoes -10.0933
810
root -0.892852 17.3424 -0.176903 -159.705 116.822 -182.72
lowerback 6.17113 -4.377 -5.64092
upperback -6.72813 -6.399 1.0657
thorax -9.91737 -2.62764 5.18371
lowerneck -7.77306 -6.28584 -7.5471
upperneck -0.352166 -8.10713 15.382
head 2.16216 -3.69248 5.5094
rclavicle 8.24956e-014 4.77083e-014
rhumerus 14.4039 33.9392 -53.9008
rradius 131.263
rwrist -14.0553
rhand 0.401618 20.0826
rfingers 7.12502
rthumb 25.975 -8.16236
lclavicle 8.24956e-014 4.77083e-014
lhumerus 4.33728 -29.7894 59.8409
lradius 135.705
lwrist 25.0036
lhand 19.6033 27.8538
lfingers 7.12502
lthumb 44.1653 51.6747
rfemur -46.6517 13.2468 9.1762
rtibia 36.6803
rfoot -14.153 0.345251
rtoes -17.2654
lfemur -36.3547 7.548 -22.1518
ltibia 36.6576
lfoot -20.7432 23.9503
ltoes -10.8307
811
root -0.99289 17.2644 -0.207342 -158.891 116.496 -182.373
lowerback 7.39377 -4.29089 -5.90465
upperback -6.24027 -6.40852 0.836255
thorax -10.1027 -2.62308 5.17936
lowerneck -7.29488 -6.28459 -7.35557
upperneck -2.06768 -7.94483 15.8272
head 1.58064 -3.67241 5.66066
rclavicle 7.83212e-014 3.97569e-015
rhumerus 14.3509 32.7936 -53.91
rradius 131.792
rwrist -13.536
rhand -0.736185 20.6207
rfingers 7.12502
rthumb 24.8851 -7.77946
lclavicle 7.83212e-014 3.97569e-015
lhumerus 6.10528 -29.3814 58.8406
lradius 136.087
lwrist 24.8652
lhand 19.0114 27.7181
lfingers 7.12502
lthumb 43.613 51.7438
rfemur -48.7548 12.7315 8.91799
rtibia 38.6365
rfoot -14.4116 0.648505
rtoes -17.2577
lfemur -38.9147 8.03192 -22.6161
ltibia 39.1751
lfoot -20.7115 23.5701
ltoes -11.7236
812
root -1.0991 17.1865 -0.238459 -158.076 116.043 -182.049
lowerback 8.71709 -4.20347 -6.20005
upperback -5.77651 -6.42509 0.692104
thorax -10.3604 -2.61021 5.2965
lowerneck -6.64268 -6.28065 -7.21296
upperneck -3.91349 -7.75039 16.2028
head 0.929487 -3.65441 5.81113
rclavicle -7.55382e-014 -4.77083e-015
rhumerus 14.2617 31.5887 -53.7846
rradius 132.337
rwrist -13.0433
rhand -1.6498 21.4231
rfingers 7.12502
rthumb 24.0092 -7.09535
lclavicle -7.55382e-014 -4.77083e-015
lhumerus 7.8243 -29.1977 57.9956
lradius 136.466
lwrist 24.4044
lhand 18.5677 27.546
lfingers 7.12502
lthumb 43.1985 51.7214
rfemur -50.7835 12.2388 8.62678
rtibia 40.3791
rfoot -14.6067 0.803807
rtoes -17.839
lfemur -41.492 8.30836 -22.9951
ltibia 41.5351
lfoot -20.5172 23.2733
ltoes -12.5508
813
root -1.20552 17.1075 -0.269841 -157.12 115.428 -181.534
lowerback 10.1672 -4.07197 -6.39315
upperback -5.22598 -6.37465 0.586112
thorax -10.6086 -2.5719 5.39502
lowerneck -6.33259 -6.44489 -7.39965
upperneck -5.7525 -7.73754 16.7433
head 0.382756 -3.70944 6.05286
rclavicle -6.67916e-014 -3.65764e-014
rhumerus 14.3013 30.1283 -53.2873
rradius 132.963
rwrist -12.6211
rhand -2.54761 22.1542
rfingers 7.12502
rthumb 23.1481 -6.47499
lclavicle -6.67916e-014 -3.65764e-014
lhumerus 10.06 -29.121 57.213
lradius 136.659
lwrist 23.9038
lhand 18.1996 27.3458
lfingers 7.12502
lthumb 42.8543 51.643
rfemur -52.5897 11.6347 8.27444
rtibia 41.9444
rfoot -14.8939 0.999267
rtoes -18.4068
lfemur -43.9725 8.30729 -23.3721
ltibia 43.7966
lfoot -20.3322 22.9757
ltoes -12.7924
